# xmcd
#
# Track frame offsets:
#	150
#	33448
#	66660
#	98397
#	129404
#	168765
#	198880
#	228447
#	256234
#	288335
#	318747
#
# Disc length: 4670 seconds
#
# Revision: 1
# Processed by: cddbd v1.5.2PL0 Copyright (c) Steve Scherf et al.
# Submitted via: audiograbber 1.83.01
#
DISCID=93123c0b
DTITLE=Beardy Weardy - Squelch Monster
DYEAR=1900
DGENRE=Psytrance
TTITLE0=Uncharted Terrain
TTITLE1=Rentagal
TTITLE2=Eggman
TTITLE3=The Plan
TTITLE4=Stroke IT
TTITLE5=Lunch Out
TTITLE6=Easy Tiger
TTITLE7=3 Pipe Problem
TTITLE8=London Calling
TTITLE9=Humdinger
TTITLE10=Squelch Monster
EXTD=
EXTT0=
EXTT1=
EXTT2=
EXTT3=
EXTT4=
EXTT5=
EXTT6=
EXTT7=
EXTT8=
EXTT9=
EXTT10=
PLAYORDER=
